<?xml version="1.0" encoding="utf-8"?>
<!-- Generator: Adobe Illustrator 26.5.3, SVG Export Plug-In . SVG Version: 6.00 Build 0)  -->
<svg version="1.1" id="Layer_1" xmlns="http://www.w3.org/2000/svg" xmlns:xlink="http://www.w3.org/1999/xlink" x="0px" y="0px"
	 viewBox="0 0 24 24" style="enable-background:new 0 0 24 24;" xml:space="preserve">
<style type="text/css">
	.st0{fill:#FFFFFF;}
</style>
<g>
	<polygon class="st0" points="12.2,10.7 8.1,5 5.9,5 11,12.1 11.6,13 15.9,19 18.1,19 12.8,11.6 	"/>
	<path class="st0" d="M21.2,1H2.8C1.8,1,1,1.8,1,2.8v18.3c0,1,0.8,1.8,1.8,1.8h18.3c1,0,1.8-0.8,1.8-1.8V2.8C23,1.8,22.2,1,21.2,1z
		 M15.2,20l-4.4-6.2L5.4,20H4l6.2-7.1L4,4h4.8l4.1,5.9L18.1,4h1.4l-6,6.8L20,20H15.2z"/>
</g>
</svg>
